<?xml version="1.0" standalone="no"?>
<!DOCTYPE svg PUBLIC "-//W3C//DTD SVG 20010904//EN"
 "http://www.w3.org/TR/2001/REC-SVG-20010904/DTD/svg10.dtd">
<svg version="1.0" xmlns="http://www.w3.org/2000/svg"
 width="1455.000000pt" height="2173.000000pt" viewBox="0 0 1455.000000 2173.000000"
 preserveAspectRatio="xMidYMid meet">

<g transform="translate(0.000000,2173.000000) scale(0.100000,-0.100000)"
fill="#000000" stroke="none">
<path d="M5765 21719 c-1221 -83 -2310 -679 -3041 -1664 -247 -333 -472 -771
-598 -1163 -108 -337 -182 -764 -201 -1162 -10 -211 30 -800 54 -808 5 -2 1
-18 -9 -35 -10 -18 -30 -68 -44 -112 l-26 -80 -93 -24 c-546 -142 -1174 -435
-1475 -691 -145 -123 -275 -302 -310 -427 -10 -38 -16 -99 -16 -178 0 -104 3
-129 26 -192 135 -377 701 -749 1568 -1031 198 -64 290 -88 312 -80 7 3 49 63
93 134 90 144 180 241 329 354 436 330 1209 619 2151 804 445 87 830 139 1420
191 160 14 328 30 375 35 47 5 491 9 988 9 829 1 918 -1 1085 -18 100 -11 254
-25 342 -31 690 -46 1613 -210 2233 -395 437 -130 902 -331 1174 -507 196
-128 370 -305 479 -490 39 -66 57 -88 73 -88 69 0 389 103 671 215 547 218
947 482 1116 739 82 125 101 188 101 348 0 143 -11 206 -55 293 -80 161 -294
362 -556 520 -256 156 -709 349 -996 425 -66 18 -126 35 -134 40 -7 4 -44 66
-81 138 -64 125 -66 132 -54 162 88 208 81 943 -12 1450 -224 1212 -1027 2294
-2119 2856 -484 249 -927 384 -1486 451 -130 15 -294 17 -1654 19 -830 1
-1564 -2 -1630 -7z"/>
<path d="M4880 14175 c-272 -37 -526 -128 -784 -280 -317 -186 -586 -474 -795
-850 l-58 -105 -63 76 c-65 78 -133 135 -210 175 -38 20 -60 24 -135 24 -75
-1 -101 -5 -156 -28 -105 -44 -177 -108 -224 -201 -39 -77 -40 -80 -40 -185 0
-87 5 -116 24 -164 29 -73 73 -132 136 -179 74 -56 133 -73 245 -72 90 1 169
20 281 68 13 6 15 0 8 -46 -16 -113 -22 -383 -10 -503 41 -418 212 -814 499
-1155 203 -242 584 -498 889 -600 200 -66 597 -136 720 -126 94 7 397 60 494
85 570 151 1072 564 1329 1094 162 337 238 716 210 1057 -40 492 -240 940
-579 1292 -188 195 -338 306 -584 428 -207 103 -410 165 -636 195 -131 18
-432 18 -561 0z m475 -105 c677 -64 1281 -483 1579 -1094 291 -596 257 -1328
-89 -1885 -197 -318 -505 -594 -843 -753 -198 -94 -476 -167 -714 -188 -379
-33 -875 102 -1213 330 -160 108 -366 300 -476 445 -232 303 -364 654 -400
1059 -28 311 48 688 200 1000 164 336 403 598 732 803 360 225 789 324 1224
283z m-2391 -963 c73 -34 140 -97 173 -166 24 -49 28 -68 28 -146 0 -76 -4
-99 -26 -146 -64 -136 -224 -224 -361 -199 -115 22 -229 114 -268 217 -29 78
-25 216 8 280 85 164 283 235 446 160z"/>
<path d="M1815 12726 c-5 -2 -22 -7 -37 -10 -38 -9 -95 -61 -120 -110 -16 -30
-21 -60 -21 -111 0 -82 22 -135 78 -183 53 -47 94 -65 150 -65 93 0 180 58
221 148 46 97 21 207 -64 289 -40 38 -44 39 -119 42 -43 2 -82 2 -88 0z"/>
<path d="M1250 11898 c-76 -46 -113 -108 -118 -197 -2 -58 1 -74 30 -131 29
-57 40 -68 87 -92 43 -22 69 -28 118 -28 106 0 172 40 219 132 79 155 -45 348
-223 348 -49 0 -68 -6 -113 -32z"/>
<path d="M1286 10970 c-76 -23 -156 -144 -156 -238 0 -156 147 -269 301 -232
72 17 141 85 163 161 31 104 19 165 -45 229 -74 74 -177 105 -263 80z"/>
<path d="M1265 10007 c-100 -46 -157 -183 -125 -298 13 -47 81 -124 134 -151
150 -78 347 65 334 243 -6 76 -46 143 -112 184 -42 25 -61 30 -125 33 -48 1
-87 -3 -106 -11z"/>
<path d="M1293 9061 c-82 -21 -163 -136 -163 -231 0 -189 190 -310 348 -220
217 125 153 435 -94 455 -32 2 -74 0 -91 -4z"/>
<path d="M8123 8409 c-250 -24 -489 -101 -663 -213 -85 -55 -144 -86 -165 -86
-20 0 -120 51 -255 129 -216 126 -348 160 -650 168 -220 6 -286 0 -453 -42
-206 -52 -439 -161 -842 -393 -110 -64 -297 -172 -415 -240 -233 -134 -555
-298 -689 -351 -246 -96 -393 -94 -492 9 -144 148 -117 504 48 650 79 69 171
85 327 55 81 -16 156 -8 156 17 0 23 -50 75 -97 101 -87 47 -162 61 -328 61
-130 0 -159 -3 -215 -23 -217 -76 -397 -279 -471 -533 -30 -103 -38 -345 -15
-476 65 -372 292 -660 659 -832 137 -64 218 -92 433 -150 288 -77 348 -83 694
-77 380 7 602 33 964 113 306 68 710 200 981 319 195 87 304 152 456 273 109
86 181 132 207 132 40 0 84 -25 193 -108 394 -300 744 -446 1479 -616 206 -48
296 -59 625 -76 110 -6 220 -15 245 -20 179 -36 662 27 975 127 227 72 466
208 610 345 135 128 278 366 326 543 32 117 32 375 1 490 -45 163 -117 281
-256 421 -160 159 -268 214 -436 222 -126 5 -192 -7 -289 -53 -79 -38 -172
-122 -206 -187 -18 -36 -18 -39 -2 -55 16 -16 22 -14 110 30 163 83 251 87
358 15 145 -97 227 -272 216 -460 -5 -95 -12 -111 -73 -171 -52 -51 -142 -94
-239 -114 -149 -30 -279 -1 -520 117 -172 84 -302 162 -650 390 -148 98 -313
203 -365 234 -144 87 -383 201 -500 240 -213 70 -523 100 -777 75z"/>
<path d="M1285 8103 c-45 -7 -92 -48 -122 -106 -55 -107 -29 -248 58 -319 32
-26 48 -30 118 -35 102 -7 156 11 206 70 107 125 67 321 -77 381 -35 15 -114
19 -183 9z"/>
<path d="M1275 7141 c-81 -21 -134 -94 -142 -195 -9 -110 39 -199 130 -242
121 -56 256 -10 320 111 33 62 29 154 -8 224 -46 84 -78 103 -183 107 -48 2
-101 0 -117 -5z"/>
<path d="M1323 6199 c-85 -16 -152 -71 -178 -147 -53 -156 41 -313 197 -329
72 -7 131 11 180 55 84 76 109 213 55 305 -55 94 -149 137 -254 116z"/>
<path d="M1309 5246 c-153 -55 -223 -211 -154 -345 44 -89 115 -131 218 -131
53 0 71 5 117 33 136 81 159 250 51 370 -60 66 -162 99 -232 73z"/>
<path d="M1319 4299 c-58 -16 -130 -78 -162 -139 -25 -48 -28 -63 -25 -122 3
-59 8 -74 43 -124 71 -103 179 -133 290 -80 93 44 137 116 137 222 1 154 -146
280 -283 243z"/>
<path d="M1250 3307 c-102 -60 -143 -171 -109 -288 38 -124 212 -199 327 -140
180 93 186 348 12 436 -75 38 -159 35 -230 -8z"/>
<path d="M1276 2375 c-49 -17 -103 -68 -127 -120 -25 -53 -25 -156 0 -210 67
-146 258 -187 379 -81 107 94 100 300 -13 378 -73 48 -161 61 -239 33z"/>
<path d="M1285 1425 c-51 -18 -127 -99 -143 -152 -26 -87 -5 -191 51 -251 97
-104 291 -90 372 26 26 38 30 55 33 121 3 64 0 87 -18 130 -49 114 -176 168
-295 126z"/>
<path d="M1255 457 c-165 -94 -165 -352 1 -433 45 -22 64 -26 116 -22 121 7
202 71 228 179 26 105 -20 207 -120 266 -46 28 -63 33 -120 33 -49 0 -75 -6
-105 -23z"/>
</g>
</svg>
