<?xml version="1.0" encoding="UTF-8" standalone="no"?>
<!DOCTYPE svg PUBLIC "-//W3C//DTD SVG 1.1//EN" "http://www.w3.org/Graphics/SVG/1.1/DTD/svg11.dtd">
<svg version="1.1" xmlns="http://www.w3.org/2000/svg" xmlns:xlink="http://www.w3.org/1999/xlink" preserveAspectRatio="xMidYMid meet" viewBox="0 0 1097 370" width="1097" height="370"><defs><path d="M454.49 42.31L455.48 43.02L456.45 43.75L457.43 44.48L458.39 45.22L459.35 45.97L460.31 46.72L461.26 47.48L462.21 48.24L463.15 49.01L464.09 49.79L465.02 50.57L465.95 51.35L466.88 52.14L467.8 52.93L468.73 53.72L469.64 54.52L470.56 55.32L471.47 56.13L472.39 56.93L473.3 57.74L474.21 58.55L475.12 59.36L476.02 60.18L476.93 60.99L477.84 61.8L478.74 62.62L479.65 63.43L480.55 64.25L481.46 65.06L482.37 65.87L483.28 66.68L484.19 67.49L485.1 68.3L486.02 69.1L486.93 69.9L487.85 70.7L488.77 71.5L489.69 72.29L492.1 74.39L494.5 76.49L496.9 78.59L499.3 80.7L501.69 82.81L504.09 84.93L506.47 87.04L508.86 89.16L511.25 91.28L513.63 93.41L516.01 95.53L518.39 97.66L520.77 99.79L523.15 101.91L525.53 104.04L527.91 106.17L530.29 108.3L532.67 110.43L535.05 112.55L537.43 114.68L539.82 116.8L542.2 118.92L544.59 121.04L546.98 123.16L549.37 125.27L551.77 127.38L554.16 129.49L556.57 131.59L558.97 133.69L561.38 135.78L563.79 137.87L566.21 139.95L568.63 142.03L571.06 144.1L573.49 146.17L575.92 148.23L578.37 150.28L580.82 152.33L583.27 154.37L585.73 156.4L586.38 156.06L587.03 155.72L587.69 155.38L588.36 155.04L589.03 154.71L589.7 154.38L590.38 154.06L591.06 153.74L591.75 153.42L592.45 153.12L593.14 152.82L593.84 152.53L594.55 152.26L595.25 151.99L595.97 151.73L596.68 151.49L597.4 151.26L598.12 151.05L598.84 150.85L599.56 150.67L600.29 150.5L601.01 150.35L601.74 150.23L602.47 150.12L603.2 150.03L603.93 149.96L604.67 149.92L605.4 149.9L606.13 149.91L606.86 149.94L607.6 149.99L608.33 150.07L609.06 150.18L609.79 150.32L610.52 150.49L611.25 150.69L611.98 150.92L612.7 151.19L613.43 151.48L614.15 151.81L614.99 152.28L615.83 152.78L616.66 153.31L617.48 153.87L618.28 154.46L619.08 155.08L619.86 155.72L620.62 156.39L621.37 157.09L622.1 157.81L622.81 158.55L623.49 159.32L624.16 160.1L624.8 160.91L625.42 161.74L626.01 162.58L626.57 163.44L627.11 164.31L627.61 165.2L628.08 166.11L628.52 167.02L628.93 167.95L629.29 168.89L629.63 169.83L629.92 170.79L630.17 171.75L630.38 172.72L630.55 173.7L630.68 174.68L630.76 175.66L630.79 176.64L630.77 177.63L630.71 178.61L630.59 179.6L630.43 180.58L630.2 181.56L629.93 182.54L629.6 183.51L629.21 184.47L628.76 185.43L628.26 185.95L627.74 186.44L627.21 186.91L626.65 187.36L626.08 187.77L625.5 188.16L624.9 188.53L624.28 188.87L623.66 189.19L623.02 189.48L622.37 189.75L621.71 190L621.03 190.23L620.35 190.43L619.66 190.61L618.97 190.77L618.26 190.92L617.55 191.03L616.84 191.13L616.11 191.21L615.39 191.28L614.66 191.32L613.93 191.34L613.2 191.35L612.47 191.34L611.74 191.31L611.01 191.27L610.28 191.21L609.56 191.13L608.83 191.04L608.12 190.93L607.4 190.81L606.69 190.68L605.99 190.53L605.3 190.37L604.61 190.19L603.93 190L603.26 189.81L602.61 189.59L601.96 189.37L601.09 189.07L600.25 188.73L599.44 188.36L598.66 187.96L597.91 187.52L597.19 187.05L596.49 186.55L595.82 186.03L595.18 185.47L594.55 184.9L593.95 184.3L593.36 183.67L592.8 183.03L592.25 182.37L591.72 181.69L591.21 180.99L590.7 180.28L590.22 179.55L589.74 178.81L589.27 178.06L588.81 177.3L588.36 176.53L587.92 175.76L587.49 174.98L587.05 174.19L586.62 173.41L586.19 172.62L585.77 171.83L585.34 171.05L584.91 170.26L584.48 169.48L584.04 168.71L583.6 167.95L583.15 167.19L582.69 166.44L582.23 165.71L581.75 164.98L581.27 164.28L580.77 163.58L580.25 162.91L579.82 162.11L579.36 161.35L578.87 160.61L578.37 159.9L577.83 159.22L577.28 158.56L576.71 157.93L576.11 157.33L575.5 156.74L574.86 156.18L574.21 155.65L573.55 155.13L572.86 154.64L572.16 154.17L571.45 153.71L570.72 153.28L569.98 152.86L569.23 152.46L568.47 152.07L567.69 151.7L566.91 151.35L566.12 151.01L565.32 150.68L564.51 150.36L563.7 150.06L562.88 149.76L562.05 149.48L561.23 149.21L560.4 148.94L559.57 148.68L558.73 148.43L557.9 148.18L557.07 147.94L556.24 147.71L555.41 147.48L554.58 147.25L553.76 147.02L552.94 146.8L552.13 146.57L551.32 146.35L551.02 146.27L550.71 146.2L550.41 146.12L550.1 146.03L549.79 145.94L549.49 145.86L549.18 145.76L548.87 145.67L548.57 145.58L548.26 145.49L547.95 145.39L547.64 145.3L547.33 145.21L547.02 145.11L546.71 145.03L546.4 144.94L546.09 144.85L545.78 144.77L545.47 144.69L545.16 144.62L544.84 144.55L544.53 144.48L544.22 144.42L543.91 144.37L543.59 144.32L543.28 144.28L542.97 144.25L542.65 144.22L542.34 144.2L542.03 144.19L541.71 144.19L541.4 144.19L541.08 144.21L540.77 144.24L540.45 144.28L540.14 144.33L539.82 144.39L539.51 144.46L539.19 144.54L538.88 144.64L538.15 144.85L537.42 145.06L536.69 145.26L535.96 145.46L535.22 145.66L534.48 145.86L533.75 146.06L533.01 146.26L532.27 146.45L531.53 146.65L530.79 146.85L530.05 147.04L529.31 147.24L528.58 147.45L527.84 147.65L527.11 147.86L526.37 148.08L525.64 148.29L524.91 148.52L524.18 148.74L523.46 148.98L522.74 149.22L522.02 149.46L521.3 149.72L520.59 149.98L519.88 150.25L519.17 150.53L518.47 150.82L517.77 151.12L517.08 151.42L516.39 151.74L515.71 152.07L515.03 152.42L514.36 152.77L513.7 153.14L513.04 153.52L512.39 153.91L511.74 154.32L511.1 154.75L510.47 155.19L509.75 155.76L509.07 156.34L508.4 156.95L507.76 157.58L507.15 158.22L506.55 158.88L505.97 159.55L505.42 160.24L504.88 160.94L504.36 161.65L503.85 162.37L503.35 163.11L502.87 163.85L502.4 164.6L501.94 165.36L501.49 166.13L501.05 166.91L500.61 167.68L500.18 168.47L499.75 169.25L499.33 170.04L498.91 170.83L498.49 171.62L498.07 172.41L497.64 173.2L497.22 173.99L496.79 174.77L496.35 175.55L495.91 176.33L495.46 177.1L495 177.86L494.53 178.62L494.05 179.36L493.55 180.1L493.04 180.83L492.52 181.54L491.98 182.25L491.42 182.94L490.85 183.62L490.25 184.28L489.74 184.77L489.22 185.25L488.69 185.69L488.14 186.12L487.59 186.52L487.02 186.91L486.45 187.27L485.86 187.61L485.27 187.94L484.67 188.24L484.06 188.52L483.44 188.79L482.82 189.04L482.19 189.27L481.55 189.48L480.91 189.68L480.26 189.86L479.6 190.02L478.94 190.17L478.28 190.31L477.61 190.43L476.94 190.54L476.27 190.63L475.59 190.71L474.91 190.78L474.22 190.84L473.54 190.89L472.85 190.92L472.17 190.95L471.48 190.96L470.79 190.97L470.11 190.96L469.42 190.95L468.73 190.93L468.05 190.9L467.37 190.87L466.69 190.83L466.01 190.78L465.34 190.73L464.67 190.67L464.26 190.61L463.86 190.55L463.47 190.47L463.07 190.38L462.68 190.28L462.29 190.16L461.91 190.03L461.53 189.9L461.15 189.74L460.78 189.58L460.42 189.41L460.06 189.22L459.7 189.03L459.36 188.82L459.01 188.6L458.68 188.38L458.35 188.14L458.03 187.89L457.72 187.64L457.41 187.37L457.12 187.1L456.83 186.81L456.55 186.52L456.28 186.22L456.02 185.91L455.77 185.6L455.54 185.27L455.31 184.94L455.09 184.61L454.88 184.26L454.69 183.91L454.5 183.55L454.33 183.18L454.17 182.81L454.02 182.43L453.89 182.05L453.77 181.66L453.66 181.27L453.57 180.87L453.49 180.47L453.36 179.6L453.27 178.74L453.21 177.88L453.19 177.02L453.2 176.17L453.25 175.33L453.32 174.48L453.44 173.65L453.58 172.82L453.75 171.99L453.95 171.18L454.18 170.37L454.44 169.57L454.73 168.77L455.04 167.99L455.38 167.21L455.74 166.44L456.13 165.68L456.54 164.94L456.97 164.2L457.43 163.47L457.9 162.76L458.39 162.05L458.91 161.36L459.44 160.69L459.99 160.02L460.55 159.37L461.13 158.73L461.73 158.11L462.34 157.5L462.96 156.91L463.59 156.33L464.24 155.77L464.9 155.22L465.56 154.69L466.24 154.18L466.92 153.69L467.61 153.21L468.31 152.76L469.01 152.32L469.75 152.02L470.49 151.74L471.23 151.49L471.98 151.26L472.73 151.06L473.48 150.88L474.23 150.73L474.99 150.6L475.74 150.49L476.5 150.41L477.26 150.34L478.02 150.3L478.77 150.28L479.53 150.28L480.29 150.31L481.04 150.35L481.8 150.41L482.55 150.49L483.31 150.59L484.05 150.71L484.8 150.85L485.55 151L486.29 151.17L487.03 151.36L487.76 151.57L488.49 151.79L489.22 152.03L489.94 152.28L490.66 152.55L491.37 152.84L492.08 153.14L492.78 153.45L493.48 153.77L494.16 154.11L494.85 154.46L495.52 154.83L496.19 155.2L496.85 155.59L497.5 155.99L498.15 156.4L498.94 155.77L499.74 155.15L500.53 154.52L501.32 153.89L502.11 153.25L502.9 152.62L503.68 151.98L504.47 151.34L505.25 150.7L506.03 150.05L506.81 149.41L507.59 148.76L508.36 148.11L509.14 147.46L509.91 146.81L510.68 146.15L511.46 145.5L512.22 144.84L512.99 144.18L513.76 143.52L514.52 142.85L515.29 142.19L516.05 141.52L516.81 140.86L517.57 140.19L518.33 139.52L519.09 138.85L519.84 138.17L520.6 137.5L521.35 136.83L522.11 136.15L522.86 135.47L523.61 134.79L524.36 134.11L525.11 133.43L525.86 132.75L526.6 132.07L527.35 131.38L528.1 130.7L528.84 130.01L527.27 128.43L525.7 126.85L524.12 125.27L522.54 123.69L520.96 122.12L519.37 120.55L517.79 118.98L516.2 117.41L514.61 115.85L513.02 114.28L511.43 112.72L509.84 111.15L508.25 109.59L506.65 108.02L505.06 106.46L503.47 104.89L501.88 103.32L500.3 101.75L498.71 100.18L497.13 98.61L495.55 97.04L493.97 95.46L492.39 93.88L490.82 92.29L489.25 90.71L487.69 89.12L486.13 87.52L484.57 85.92L483.02 84.32L481.48 82.71L479.94 81.09L478.41 79.47L476.88 77.85L475.36 76.22L473.84 74.58L472.34 72.93L470.84 71.28L469.35 69.62L467.86 67.95L466.39 66.28L465.87 65.75L465.37 65.21L464.88 64.66L464.39 64.11L463.91 63.55L463.44 62.99L462.98 62.42L462.53 61.84L462.08 61.26L461.65 60.67L461.22 60.08L460.8 59.48L460.39 58.88L459.99 58.27L459.6 57.65L459.21 57.03L458.84 56.41L458.47 55.78L458.11 55.14L457.76 54.5L457.41 53.86L457.08 53.21L456.75 52.56L456.44 51.9L456.13 51.24L455.83 50.57L455.53 49.9L455.25 49.23L454.98 48.55L454.71 47.87L454.45 47.19L454.2 46.5L453.96 45.81L453.73 45.12L453.5 44.42L453.29 43.72L453.08 43.02L452.88 42.31L452.69 41.6L452.51 40.89L453.5 41.6L454.49 42.31ZM478.7 157.27L477.74 157.45L476.82 157.69L475.95 158.01L474.84 158.35L473.78 158.77L472.76 159.25L471.78 159.81L470.83 160.42L469.93 161.1L469.06 161.82L468.22 162.59L467.42 163.4L466.65 164.24L465.9 165.12L465.19 166.02L464.51 166.94L463.85 167.87L463.21 168.81L462.6 169.75L462.01 170.69L461.58 171.43L461.23 172.21L460.97 173.03L460.78 173.88L460.68 174.75L460.67 175.63L460.73 176.51L460.87 177.38L461.08 178.23L461.38 179.05L461.74 179.83L462.19 180.57L462.7 181.26L463.29 181.88L463.95 182.42L464.67 182.88L465.47 183.25L467.63 183.88L469.84 184.21L472.08 184.24L474.32 184.01L476.52 183.51L478.66 182.78L480.7 181.81L482.62 180.64L484.4 179.27L485.99 177.73L487.37 176.02L488.51 174.16L489.38 172.17L489.96 170.06L490.2 167.85L490.09 165.55L489.59 163.19L489.29 162.21L488.88 161.32L488.36 160.53L487.75 159.82L487.05 159.19L486.27 158.66L485.43 158.2L484.54 157.83L483.61 157.54L482.65 157.33L481.66 157.2L480.67 157.15L479.68 157.17L478.7 157.27ZM599.85 157.75L599.26 157.91L598.69 158.13L598.15 158.39L597.62 158.69L597.13 159.04L596.67 159.42L596.24 159.84L595.84 160.29L595.47 160.78L595.14 161.28L594.85 161.81L594.6 162.36L594.39 162.93L594.23 163.51L594.11 164.1L594.04 164.7L594.01 165.31L593.86 167.52L594.04 169.65L594.51 171.68L595.26 173.6L596.26 175.41L597.48 177.08L598.91 178.6L600.5 179.97L602.25 181.17L604.11 182.19L606.08 183.02L608.12 183.64L610.2 184.04L612.3 184.21L614.4 184.13L616.48 183.81L618.49 183.21L619.31 182.87L620.05 182.42L620.71 181.89L621.3 181.28L621.81 180.6L622.25 179.87L622.61 179.08L622.9 178.26L623.11 177.4L623.24 176.53L623.3 175.65L623.28 174.76L623.18 173.89L623 173.04L622.75 172.21L622.42 171.43L622.01 170.69L621.27 169.29L620.44 167.9L619.51 166.54L618.5 165.23L617.42 163.97L616.26 162.77L615.02 161.66L613.73 160.64L612.37 159.72L610.95 158.92L609.48 158.26L607.97 157.74L606.41 157.37L604.82 157.18L603.19 157.17L601.53 157.35L599.85 157.75ZM538.67 127.95L538.14 129.24L537.61 130.54L537.08 131.83L536.56 133.13L536.04 134.43L538.02 134.62L540.01 134.74L542 134.78L543.99 134.74L545.98 134.62L547.96 134.43L547.44 133.13L546.92 131.83L546.39 130.54L545.86 129.24L545.32 127.95L544.79 126.67L539.21 126.67L538.67 127.95Z" id="d137mul7VW"></path><path d="M627.8 40.69C625.85 53.93 616.85 64.56 607.71 73.69C589.96 91.29 572.6 109.27 554.59 126.6C550.72 122.95 546.84 119.36 542.85 115.85C555.89 102.04 570.97 90.43 584.95 77.61C599.03 65.08 612.73 52.07 627.8 40.69Z" id="ezmic0eh5"></path><path d="M1022.03 219.91C1033.96 223.67 1046.41 226.09 1057.75 231.56C1053.93 233.13 1049.71 234.92 1045.68 232.43C947.44 203.17 846.76 181.83 744.87 170.29C714.56 166.12 683.95 164.81 653.56 161.45C654.56 159.68 655.59 157.92 656.63 156.17C780.25 164.33 902.91 185.91 1022.03 219.91Z" id="bBEuI43z"></path><path d="M428.01 157.51C428.29 159.16 428.57 160.83 428.87 162.48C305.83 169.59 183.95 192.25 65.55 226.15C55.13 228.91 44.83 232.24 34.19 234.16C34.16 232.99 34.11 230.64 34.08 229.47C115.67 205.23 198.63 185.24 282.91 172.96C331.04 165.96 379.37 159.48 428.01 157.51Z" id="a1potJG3KO"></path><path d="M659.31 166.28C763.31 173.04 866.51 190.25 967.51 215.83C993.71 222.97 1020.07 229.68 1045.83 238.29C1042.41 241.73 1037.84 244.72 1032.89 242.44C920.96 208.57 805.4 186.96 688.91 176.96C674.08 175.39 659.07 175.55 644.41 172.56C647.79 167.83 652.91 163.8 659.31 166.28Z" id="bd25xar3Q"></path><path d="M435.71 168.91C437.12 170.35 438.41 171.92 439.71 173.48C307.59 181.75 176.59 205.8 49.92 244.16C47.57 242.45 45.23 240.75 42.89 239.04C89.68 222.56 138.16 211.41 186.52 200.56C263.04 184.4 340.63 173.27 418.6 167.36C423.96 168.23 431.51 164.15 435.71 168.91Z" id="b30roOoKrY"></path><path d="M111.44 209.17C111.84 209.49 112.61 210.12 113.01 210.44C112.43 213.92 107.8 209.45 111.44 209.17Z" id="f2yv1hmfAg"></path><path d="M213.29 266.52C225.08 266.96 235.41 273.64 244.08 281.11C236.59 279.4 228.89 277.84 221.17 278.72C195.97 285.05 172.73 300.08 146 299.32C133.88 298.73 123.55 291.69 116.11 282.59C122.29 284.32 128.64 285.88 135.13 285.61C161.92 282.13 185.57 264.49 213.29 266.52Z" id="arvl1hXCh"></path><path d="M872.71 266.13C898.97 263.79 921.47 281.39 947.39 281.65C953.57 282.24 959.56 280.52 965.41 278.8C959.43 285.96 952.07 292.39 942.83 294.81C926.72 298.95 910.27 294.05 894.89 289.2C877.05 283.33 857.28 273.67 838.52 281.29C847.79 272.48 859.36 265.31 872.71 266.13Z" id="a9VbtjSipm"></path><path d="M287.92 250.55L289.11 250.57L290.3 250.59L291.49 250.62L292.68 250.66L293.87 250.71L295.05 250.76L296.24 250.83L297.43 250.9L298.61 250.98L299.8 251.08L300.98 251.18L302.17 251.29L303.35 251.42L304.53 251.56L305.71 251.71L306.89 251.87L307.4 251.95L307.9 252.05L308.4 252.16L308.89 252.29L309.37 252.44L309.84 252.6L310.31 252.78L310.77 252.97L311.22 253.18L311.66 253.4L312.1 253.63L312.53 253.88L312.95 254.14L313.36 254.41L313.76 254.7L314.15 254.99L314.54 255.3L314.92 255.63L315.28 255.96L315.64 256.3L315.99 256.65L316.33 257.02L316.66 257.39L316.98 257.77L317.29 258.16L317.58 258.56L317.87 258.97L318.15 259.39L318.42 259.81L318.67 260.24L318.92 260.68L319.15 261.13L319.38 261.58L319.59 262.04L319.79 262.5L319.97 262.97L320.15 263.44L320.31 263.92L320.46 264.41L320.6 264.89L320.75 265.5L320.87 266.11L320.97 266.7L321.03 267.3L321.08 267.88L321.09 268.46L321.08 269.04L321.05 269.61L321 270.18L320.93 270.74L320.83 271.3L320.71 271.85L320.58 272.4L320.43 272.94L320.26 273.48L320.08 274.01L319.88 274.55L319.66 275.07L319.43 275.6L319.19 276.12L318.94 276.64L318.68 277.15L318.4 277.66L318.12 278.17L317.83 278.67L317.53 279.17L317.23 279.67L316.92 280.17L316.6 280.66L316.29 281.16L315.96 281.64L315.64 282.13L315.32 282.62L314.99 283.1L314.67 283.58L314.35 284.06L314.03 284.54L313.71 285.02L313.4 285.5L313.09 285.97L313.71 286.42L314.31 286.88L314.9 287.36L315.49 287.86L316.06 288.38L316.62 288.91L317.17 289.45L317.71 290.02L318.23 290.59L318.74 291.18L319.23 291.78L319.71 292.4L320.17 293.03L320.61 293.67L321.03 294.32L321.43 294.98L321.82 295.66L322.18 296.34L322.52 297.03L322.84 297.73L323.13 298.44L323.41 299.15L323.66 299.87L323.88 300.6L324.07 301.34L324.25 302.08L324.39 302.82L324.5 303.57L324.59 304.32L324.65 305.08L324.67 305.84L324.67 306.6L324.63 307.36L324.56 308.12L324.46 308.89L324.32 309.65L324.15 310.41L323.94 311.17L323.69 311.94L323.41 312.69L323.33 313.14L323.24 313.58L323.13 314.01L323 314.44L322.86 314.86L322.71 315.28L322.54 315.69L322.36 316.09L322.17 316.49L321.96 316.89L321.75 317.27L321.52 317.65L321.28 318.03L321.03 318.39L320.77 318.75L320.5 319.11L320.21 319.45L319.92 319.79L319.63 320.13L319.32 320.45L319 320.77L318.68 321.09L318.35 321.39L318.01 321.69L317.66 321.98L317.31 322.26L316.96 322.54L316.59 322.81L316.22 323.07L315.85 323.32L315.47 323.57L315.09 323.8L314.71 324.03L314.32 324.26L313.93 324.47L313.53 324.67L313.13 324.87L312.74 325.06L312.33 325.24L311.93 325.41L310.67 325.82L309.41 326.19L308.14 326.54L306.86 326.85L305.58 327.14L304.3 327.4L303.01 327.64L301.73 327.85L300.43 328.04L299.14 328.21L297.84 328.36L296.54 328.48L295.23 328.59L293.93 328.68L292.62 328.76L291.31 328.82L290 328.86L288.68 328.89L287.37 328.91L286.05 328.91L284.73 328.91L283.41 328.9L282.1 328.87L280.78 328.85L279.46 328.81L278.14 328.77L276.82 328.73L275.5 328.68L274.18 328.63L272.86 328.59L271.54 328.54L270.22 328.49L268.91 328.45L267.59 328.4L266.28 328.37L264.97 328.34L263.66 328.31L262.35 328.3L261.05 328.29L259.75 328.29L259.7 326.37L259.65 324.44L259.61 322.51L259.57 320.58L259.53 318.65L259.5 316.72L259.47 314.8L259.44 312.87L259.42 310.94L259.4 309.01L259.38 307.08L259.36 305.15L259.35 303.23L259.33 301.3L259.32 299.37L259.31 297.44L259.31 295.51L259.3 293.58L259.3 291.66L259.29 289.73L259.29 287.8L259.29 285.87L259.29 283.94L259.29 282.02L259.3 280.09L259.3 278.16L259.3 276.23L259.31 274.3L259.31 272.38L259.32 270.45L259.32 268.52L259.33 266.59L259.34 264.66L259.34 262.74L259.34 260.81L259.35 258.88L259.35 256.95L259.36 255.03L259.36 253.1L259.36 251.17L260.55 251.14L261.74 251.11L262.92 251.08L264.11 251.04L265.3 251.01L266.49 250.97L267.68 250.93L268.87 250.89L270.06 250.85L271.25 250.81L272.44 250.78L273.63 250.74L274.82 250.71L276.02 250.67L277.21 250.64L278.4 250.62L279.59 250.59L280.78 250.57L281.97 250.56L283.16 250.55L284.35 250.54L285.54 250.54L286.73 250.54L287.92 250.55ZM276.59 296.01L276.62 297.21L276.66 298.4L276.69 299.6L276.72 300.8L276.76 302L276.79 303.2L276.83 304.4L276.86 305.6L276.9 306.79L276.93 307.99L276.97 309.19L277 310.39L277.04 311.6L277.08 312.8L277.15 315.2L278.54 315.1L279.95 315.05L281.37 315.02L282.79 315.02L284.22 315.04L285.66 315.07L287.09 315.09L288.53 315.11L289.96 315.12L291.39 315.1L292.82 315.06L294.24 314.97L295.65 314.84L297.05 314.65L298.43 314.4L299.81 314.08L301.17 313.68L302.51 313.2L303.68 312.59L304.69 311.82L305.54 310.91L306.23 309.89L306.77 308.78L307.15 307.59L307.39 306.35L307.49 305.07L307.44 303.78L307.25 302.5L306.93 301.24L306.48 300.03L305.9 298.89L305.19 297.83L304.36 296.89L303.41 296.07L302.34 295.4L301.16 294.89L299.83 294.57L298.48 294.3L297.13 294.1L295.77 293.94L294.41 293.83L293.04 293.75L291.66 293.71L290.28 293.69L288.9 293.7L287.52 293.72L286.13 293.74L284.75 293.77L283.37 293.79L281.99 293.8L280.62 293.79L279.24 293.77L277.88 293.71L276.52 293.61L276.55 294.81L276.59 296.01ZM276.65 266.47L276.68 267.57L276.72 268.67L276.75 269.77L276.79 270.86L276.82 271.96L276.85 273.06L276.89 274.16L276.93 275.26L276.97 276.36L277 277.46L277.04 278.56L277.09 279.66L277.13 280.76L277.17 281.87L278.5 281.84L279.83 281.82L281.17 281.82L282.5 281.81L283.83 281.81L285.17 281.81L286.51 281.8L287.84 281.78L289.18 281.76L290.51 281.72L291.84 281.67L293.18 281.59L294.51 281.5L295.83 281.38L297.16 281.23L298.48 281.05L299.55 280.7L300.46 280.2L301.21 279.55L301.83 278.78L302.32 277.91L302.72 276.96L303.02 275.94L303.25 274.86L303.43 273.76L303.57 272.64L303.69 271.53L303.81 270.44L303.94 269.39L304.09 268.39L304.29 267.48L304.55 266.65L302.82 266.3L301.09 265.99L299.36 265.73L297.62 265.5L295.87 265.31L294.13 265.15L292.38 265.02L290.62 264.91L288.87 264.81L287.11 264.73L285.35 264.66L283.6 264.59L281.84 264.52L280.09 264.45L278.34 264.37L276.59 264.28L276.62 265.38L276.65 266.47Z" id="apBZ7dkud"></path><path d="M370.03 250.04L370.49 250.06L370.95 250.08L371.42 250.12L371.88 250.15L372.34 250.2L372.8 250.24L373.26 250.28L373.71 250.33L374.16 250.37L374.61 250.41L375.05 250.44L375.48 250.47L375.9 250.49L376.32 250.5L376.72 250.5L377.11 250.5L377.5 250.47L377.87 250.44L378.26 250.51L378.64 250.61L378.99 250.73L379.34 250.86L379.67 251.02L379.98 251.2L380.28 251.39L380.56 251.6L380.83 251.82L381.09 252.06L381.34 252.32L381.58 252.58L381.8 252.86L382.02 253.15L382.23 253.46L382.43 253.77L382.62 254.09L382.8 254.42L382.97 254.75L383.14 255.09L383.31 255.44L383.47 255.79L383.62 256.15L383.77 256.51L383.92 256.87L384.06 257.23L384.21 257.59L384.35 257.96L384.49 258.32L384.63 258.67L384.77 259.03L384.91 259.38L385.05 259.73L385.2 260.07L385.35 260.4L385.5 260.73L385.66 261.05L385.82 261.36L385.99 261.66L386.16 261.95L386.84 263.62L387.53 265.29L388.23 266.96L388.94 268.63L389.65 270.29L390.38 271.95L391.1 273.61L391.83 275.26L392.57 276.92L393.31 278.57L394.06 280.22L394.8 281.87L395.55 283.51L396.31 285.16L397.06 286.81L397.82 288.45L398.57 290.1L399.33 291.74L400.08 293.39L400.83 295.04L401.58 296.68L402.33 298.33L403.08 299.98L403.82 301.63L404.56 303.29L405.29 304.94L406.02 306.6L406.74 308.26L407.46 309.92L408.17 311.58L408.87 313.25L409.56 314.92L410.24 316.59L410.92 318.27L411.58 319.95L412.24 321.64L412.88 323.33L413.52 325.02L414.14 326.72L414.75 328.43L414.45 328.43L414.13 328.44L413.8 328.45L413.46 328.45L413.11 328.46L412.75 328.47L412.38 328.47L411.99 328.48L411.6 328.49L411.2 328.5L410.8 328.51L410.38 328.51L409.96 328.52L409.54 328.53L409.11 328.54L408.68 328.55L408.24 328.55L407.81 328.56L407.37 328.57L406.49 328.59L406.05 328.6L405.61 328.61L405.17 328.61L404.74 328.62L404.31 328.63L403.89 328.64L403.47 328.65L403.06 328.65L402.65 328.66L402.25 328.67L401.86 328.68L401.48 328.69L401.1 328.69L400.74 328.7L400.39 328.71L400.05 328.71L399.72 328.72L399.41 328.73L399.11 328.73L398.9 328.31L398.69 327.88L398.49 327.45L398.28 327.02L398.08 326.59L397.88 326.16L397.67 325.73L397.47 325.3L397.28 324.87L397.08 324.43L396.88 324L396.68 323.57L396.49 323.14L396.29 322.7L396.1 322.27L395.91 321.83L395.71 321.4L395.52 320.96L395.33 320.53L395.14 320.09L394.95 319.66L394.76 319.22L394.57 318.78L394.38 318.35L394.19 317.91L394 317.47L393.81 317.04L393.62 316.6L393.44 316.16L393.25 315.73L393.06 315.29L392.87 314.85L392.68 314.42L392.49 313.98L392.31 313.54L392.12 313.11L391.93 312.67L391.74 312.23L391.55 311.8L391.36 311.36L390.39 311.36L389.42 311.35L388.45 311.35L387.48 311.34L386.52 311.34L385.55 311.34L384.58 311.33L383.61 311.33L382.64 311.33L381.67 311.32L380.7 311.32L379.73 311.32L378.76 311.32L377.79 311.32L376.83 311.32L375.86 311.31L374.89 311.31L373.92 311.31L372.95 311.31L371.98 311.31L371.01 311.31L370.04 311.31L369.08 311.31L368.11 311.31L367.14 311.32L366.17 311.32L365.2 311.32L364.23 311.32L363.26 311.32L362.3 311.32L361.33 311.32L360.36 311.33L359.39 311.33L358.42 311.33L357.45 311.33L356.49 311.34L355.52 311.34L354.55 311.34L353.58 311.34L352.61 311.35L352.37 311.75L352.14 312.17L351.91 312.59L351.68 313.01L351.46 313.44L351.25 313.88L351.04 314.32L350.83 314.76L350.63 315.2L350.43 315.65L350.23 316.1L350.03 316.55L349.83 317L349.64 317.45L349.44 317.9L349.24 318.35L349.04 318.8L348.84 319.25L348.64 319.69L348.43 320.14L348.22 320.58L348 321.02L347.78 321.45L347.56 321.88L347.33 322.31L347.09 322.73L346.85 323.14L346.6 323.55L346.34 323.95L346.07 324.35L345.8 324.73L345.51 325.11L345.21 325.48L344.91 325.84L344.59 326.2L344.26 326.54L343.92 326.87L343.56 327.19L343.2 327.5L342.81 327.8L342.55 327.83L342.28 327.85L341.99 327.88L341.69 327.91L341.39 327.95L341.07 327.98L340.74 328.01L340.41 328.05L340.07 328.08L339.72 328.12L339.37 328.15L339 328.19L338.64 328.23L338.27 328.27L337.89 328.3L337.52 328.34L337.14 328.38L336.76 328.42L336.37 328.46L335.99 328.5L335.6 328.54L334.84 328.62L334.46 328.66L334.08 328.7L333.71 328.73L333.34 328.77L332.97 328.81L332.61 328.85L332.26 328.88L331.91 328.92L331.57 328.95L331.24 328.99L330.91 329.02L330.6 329.05L330.29 329.09L329.99 329.12L329.71 329.15L329.43 329.17L329.17 329.2L329.42 328.31L329.69 327.43L329.96 326.55L330.24 325.67L330.52 324.8L330.82 323.93L331.13 323.06L331.44 322.2L331.76 321.34L332.09 320.48L332.42 319.62L332.76 318.77L333.11 317.92L333.46 317.07L333.82 316.22L334.18 315.38L334.54 314.53L334.92 313.69L335.29 312.85L335.67 312.01L336.05 311.18L336.43 310.34L336.82 309.5L337.2 308.67L337.59 307.83L337.98 307L338.37 306.17L338.76 305.33L339.15 304.5L339.55 303.67L339.94 302.83L340.33 302L340.71 301.17L341.1 300.33L341.48 299.5L341.87 298.66L342.24 297.82L342.62 296.99L342.99 296.15L343.36 295.31L343.84 294.28L344.32 293.26L344.8 292.23L345.27 291.2L345.73 290.17L346.2 289.13L346.66 288.1L347.11 287.06L347.57 286.02L348.03 284.99L348.48 283.95L348.93 282.91L349.38 281.87L349.83 280.83L350.28 279.79L350.73 278.74L351.18 277.7L351.63 276.66L352.08 275.62L352.53 274.59L352.99 273.55L353.44 272.51L353.9 271.47L354.36 270.44L354.82 269.4L355.29 268.37L355.76 267.34L356.24 266.31L356.71 265.29L357.2 264.26L357.68 263.24L358.18 262.22L358.67 261.2L359.18 260.19L359.69 259.18L360.2 258.17L360.72 257.17L361.25 256.16L361.79 255.17L362.33 254.17L362.51 253.69L362.71 253.25L362.94 252.84L363.18 252.47L363.45 252.13L363.73 251.82L364.03 251.54L364.34 251.29L364.68 251.07L365.02 250.87L365.39 250.69L365.76 250.54L366.15 250.42L366.55 250.31L366.96 250.22L367.37 250.15L367.8 250.1L368.24 250.06L368.68 250.04L369.13 250.03L369.58 250.03L370.03 250.04ZM371.15 270.05L370.27 271.66L369.42 273.28L368.59 274.91L367.79 276.56L367.01 278.21L366.25 279.88L365.52 281.56L364.8 283.25L364.11 284.95L363.43 286.65L362.76 288.36L362.11 290.08L361.47 291.79L360.84 293.52L360.21 295.24L361.61 295.24L363.01 295.24L364.41 295.24L365.81 295.23L367.21 295.23L368.61 295.23L370.01 295.22L371.41 295.22L372.81 295.21L374.21 295.21L375.61 295.2L377.01 295.2L378.41 295.19L379.81 295.19L381.21 295.18L382.61 295.18L384.01 295.17L383.47 293.47L382.91 291.78L382.34 290.09L381.76 288.4L381.16 286.71L380.55 285.03L379.93 283.36L379.3 281.69L378.65 280.02L377.99 278.36L377.32 276.7L376.64 275.05L375.94 273.41L375.23 271.77L374.5 270.14L373.76 268.51L373.01 266.89L372.07 268.46L371.15 270.05Z" id="ajG1hWwoo"></path><path d="M445.29 250.31L446.39 250.32L447.49 250.34L448.59 250.36L449.69 250.38L450.78 250.41L451.88 250.45L452.98 250.49L454.07 250.54L455.17 250.59L456.26 250.65L457.36 250.71L458.45 250.78L459.55 250.86L460.64 250.94L461.73 251.03L462.82 251.12L463.92 251.22L465.01 251.33L466.1 251.44L467.19 251.56L468.31 251.79L469.4 252.08L470.46 252.42L471.49 252.82L472.48 253.28L473.45 253.78L474.38 254.33L475.28 254.93L476.15 255.57L476.98 256.26L477.78 256.98L478.54 257.75L479.27 258.55L479.96 259.38L480.62 260.25L481.24 261.15L481.82 262.07L482.37 263.02L482.87 264L483.34 265L483.77 266.01L484.15 267.05L484.5 268.1L484.81 269.17L485.07 270.24L485.3 271.33L485.48 272.43L485.62 273.53L485.71 274.63L485.76 275.74L485.77 276.85L485.73 277.95L485.65 279.05L485.52 280.14L485.35 281.23L485.12 282.3L484.85 283.36L484.54 284.41L484.17 285.44L483.76 286.45L483.5 286.9L483.24 287.34L482.96 287.78L482.68 288.21L482.4 288.63L482.1 289.05L481.8 289.47L481.49 289.87L481.18 290.27L480.86 290.67L480.53 291.06L480.2 291.45L479.86 291.83L479.51 292.2L479.16 292.57L478.81 292.94L478.44 293.3L478.08 293.65L477.71 294L477.33 294.34L476.95 294.68L476.57 295.02L476.18 295.35L475.78 295.67L475.39 295.99L474.98 296.31L474.58 296.62L474.17 296.93L473.76 297.23L473.34 297.53L472.93 297.83L472.51 298.12L472.08 298.4L471.66 298.68L471.23 298.96L470.8 299.24L470.36 299.51L469.93 299.77L469.49 300.03L469.05 300.29L469.54 300.98L470.04 301.67L470.53 302.35L471.02 303.04L471.52 303.72L472.01 304.41L472.51 305.09L473.01 305.77L473.5 306.46L474 307.14L474.49 307.82L474.99 308.51L475.49 309.19L475.99 309.87L476.48 310.55L476.98 311.24L477.48 311.92L477.97 312.61L478.47 313.29L478.96 313.97L479.46 314.66L479.95 315.34L480.44 316.03L480.94 316.72L481.43 317.4L481.92 318.09L482.41 318.78L482.89 319.47L483.38 320.16L483.87 320.85L484.35 321.54L484.84 322.23L485.32 322.92L485.8 323.62L486.28 324.32L486.75 325.01L487.23 325.71L487.7 326.41L488.17 327.11L488.64 327.81L488.14 327.84L487.64 327.87L487.14 327.89L486.64 327.92L486.14 327.94L485.64 327.97L485.14 328L484.64 328.02L484.15 328.05L483.65 328.07L483.15 328.1L482.65 328.13L482.15 328.15L481.65 328.18L481.15 328.21L480.65 328.23L480.16 328.26L479.66 328.28L479.16 328.31L478.66 328.33L478.16 328.36L477.67 328.39L477.17 328.41L476.67 328.44L476.17 328.46L475.67 328.49L475.17 328.51L474.68 328.54L474.18 328.56L473.68 328.59L473.18 328.61L472.68 328.64L472.18 328.66L471.69 328.69L471.19 328.71L470.69 328.73L470.19 328.76L469.69 328.78L469.19 328.8L468.69 328.83L468.29 328.26L467.88 327.69L467.48 327.12L467.09 326.54L466.69 325.97L466.3 325.39L465.9 324.81L465.51 324.23L465.12 323.65L464.74 323.07L464.35 322.49L463.96 321.91L463.58 321.33L463.19 320.74L462.8 320.16L462.42 319.58L462.03 319L461.64 318.42L461.26 317.84L460.87 317.25L460.48 316.68L460.09 316.1L459.69 315.52L459.3 314.95L458.9 314.37L458.5 313.8L458.1 313.23L457.7 312.66L457.29 312.09L456.88 311.53L456.47 310.97L456.05 310.41L455.63 309.85L455.21 309.3L454.78 308.75L454.35 308.2L453.91 307.66L453.47 307.12L453.02 306.59L452.57 306.05L452.41 305.72L452.24 305.41L452.06 305.11L451.87 304.82L451.67 304.56L451.46 304.3L451.24 304.06L451.01 303.83L450.77 303.62L450.52 303.41L450.27 303.22L450.01 303.04L449.74 302.87L449.47 302.71L449.19 302.56L448.9 302.42L448.61 302.29L448.31 302.16L448.01 302.04L447.71 301.93L447.4 301.83L447.09 301.73L446.77 301.63L446.46 301.54L446.14 301.45L445.82 301.37L445.5 301.29L445.17 301.21L444.85 301.13L444.53 301.06L444.21 300.98L443.89 300.91L443.57 300.83L443.25 300.75L442.93 300.68L442.62 300.59L442.31 300.51L442 300.42L441.7 300.33L441.4 300.24L441.37 300.94L441.33 301.64L441.3 302.33L441.27 303.03L441.24 303.73L441.21 304.43L441.18 305.13L441.15 305.83L441.12 306.53L441.09 307.23L441.06 307.93L441.04 308.63L441.01 309.32L440.98 310.02L440.96 310.72L440.93 311.42L440.91 312.12L440.88 312.82L440.86 313.52L440.83 314.22L440.81 314.92L440.78 315.62L440.76 316.32L440.73 317.02L440.7 317.72L440.68 318.42L440.65 319.12L440.63 319.82L440.6 320.52L440.58 321.22L440.55 321.93L440.52 322.63L440.49 323.33L440.46 324.03L440.44 324.73L440.41 325.43L440.38 326.13L440.34 326.83L440.31 327.53L440.28 328.23L439.87 328.23L439.45 328.23L439.04 328.23L438.62 328.24L438.21 328.24L437.8 328.24L437.38 328.24L436.97 328.25L436.56 328.25L436.14 328.25L435.73 328.25L435.32 328.26L434.91 328.26L434.49 328.26L434.08 328.27L433.67 328.27L433.25 328.27L432.84 328.27L432.43 328.28L431.6 328.28L431.19 328.29L430.78 328.29L430.36 328.29L429.95 328.29L429.54 328.3L429.13 328.3L428.71 328.3L428.3 328.31L427.89 328.31L427.48 328.31L427.06 328.31L426.65 328.32L426.24 328.32L425.82 328.32L425.41 328.32L425 328.33L424.59 328.33L424.17 328.33L423.76 328.33L423.71 326.4L423.66 324.47L423.62 322.54L423.58 320.61L423.54 318.68L423.5 316.75L423.47 314.82L423.44 312.88L423.42 310.95L423.4 309.02L423.38 307.09L423.36 305.16L423.34 303.23L423.33 301.3L423.32 299.36L423.31 297.43L423.3 295.5L423.29 293.57L423.29 291.64L423.29 289.71L423.29 287.78L423.29 285.84L423.29 283.91L423.29 281.98L423.29 280.05L423.3 278.12L423.3 276.19L423.31 274.25L423.31 272.32L423.32 270.39L423.32 268.46L423.33 266.53L423.34 264.6L423.34 262.67L423.35 260.74L423.36 258.8L423.36 256.87L423.37 254.94L423.37 253.01L423.37 251.08L424.47 251L425.56 250.93L426.65 250.86L427.75 250.79L428.84 250.73L429.94 250.67L431.03 250.61L432.13 250.56L433.22 250.52L434.32 250.48L435.42 250.44L436.51 250.41L437.61 250.38L438.71 250.35L439.81 250.33L440.9 250.32L442 250.31L443.1 250.31L444.2 250.31L445.29 250.31ZM440.63 266.8L440.65 268.07L440.68 269.35L440.71 270.63L440.74 271.91L440.77 273.19L440.8 274.46L440.83 275.74L440.86 277.02L440.89 278.3L440.93 279.58L440.96 280.86L441 282.14L441.03 283.42L441.07 284.7L441.11 285.98L441.15 287.27L442.31 287.25L443.48 287.25L444.64 287.25L445.81 287.25L446.98 287.24L448.15 287.24L449.32 287.23L450.49 287.21L451.66 287.18L452.83 287.13L454 287.07L455.16 287L456.32 286.9L457.48 286.78L458.63 286.64L459.78 286.46L460.93 286.26L462.07 286.03L463.51 285.46L464.78 284.66L465.89 283.66L466.82 282.5L467.59 281.2L468.19 279.79L468.61 278.3L468.86 276.77L468.93 275.22L468.83 273.68L468.55 272.18L468.1 270.75L467.47 269.42L466.65 268.22L465.66 267.19L464.49 266.34L463.13 265.72L461.59 265.35L460.42 265.24L459.25 265.14L458.09 265.04L456.92 264.95L455.75 264.87L454.59 264.79L453.42 264.72L452.25 264.65L451.09 264.58L449.92 264.52L448.75 264.47L447.58 264.42L446.41 264.38L445.25 264.34L444.08 264.31L442.91 264.28L441.74 264.26L440.57 264.24L440.6 265.52L440.63 266.8Z" id="c6jI0Dqat"></path><path d="M504.74 250.64L505.94 250.68L507.15 250.71L508.35 250.74L509.56 250.76L510.76 250.79L511.96 250.81L513.17 250.83L514.37 250.85L515.58 250.87L516.78 250.89L517.99 250.9L519.19 250.92L520.4 250.94L521.6 250.96L522.81 250.97L524.01 250.99L525.22 251.01L526.42 251.04L527.63 251.06L528.83 251.09L530.04 251.12L531.24 251.15L532.44 251.18L533.65 251.22L534.85 251.26L536.06 251.3L537.26 251.35L538.46 251.41L539.67 251.47L540.87 251.53L542.07 251.6L543.27 251.67L544.48 251.75L545.68 251.84L546.88 251.93L548.08 252.03L549.28 252.14L550.48 252.25L550.97 252.32L551.45 252.41L551.93 252.51L552.39 252.63L552.85 252.77L553.3 252.93L553.74 253.1L554.17 253.29L554.59 253.49L555.01 253.71L555.42 253.95L555.81 254.19L556.2 254.45L556.58 254.73L556.95 255.01L557.31 255.31L557.67 255.62L558.01 255.94L558.35 256.28L558.67 256.62L558.99 256.97L559.3 257.33L559.6 257.7L559.89 258.08L560.17 258.47L560.44 258.86L560.7 259.26L560.96 259.67L561.2 260.08L561.44 260.5L561.66 260.93L561.88 261.35L562.09 261.79L562.28 262.22L562.47 262.66L562.65 263.11L562.82 263.55L562.98 264L563.13 264.44L563.27 264.89L563.41 265.51L563.53 266.13L563.62 266.74L563.68 267.34L563.72 267.94L563.73 268.53L563.71 269.12L563.67 269.7L563.61 270.27L563.53 270.84L563.43 271.41L563.31 271.97L563.16 272.53L563 273.08L562.83 273.63L562.64 274.18L562.43 274.72L562.21 275.26L561.97 275.79L561.73 276.32L561.47 276.85L561.2 277.37L560.92 277.9L560.64 278.41L560.34 278.93L560.04 279.45L559.74 279.96L559.43 280.47L559.11 280.98L558.79 281.48L558.47 281.99L558.15 282.49L557.83 282.99L557.51 283.49L557.2 283.99L556.88 284.49L556.57 284.99L556.26 285.49L555.96 285.98L555.67 286.48L556.1 286.87L556.54 287.25L556.98 287.65L557.41 288.04L557.85 288.44L558.28 288.85L558.71 289.25L559.13 289.66L559.55 290.08L559.97 290.5L560.38 290.93L560.78 291.36L561.18 291.79L561.57 292.23L561.95 292.68L562.33 293.13L562.69 293.59L563.05 294.05L563.4 294.52L563.73 294.99L564.06 295.47L564.37 295.96L564.67 296.45L564.96 296.95L565.23 297.46L565.49 297.98L565.74 298.5L565.97 299.03L566.18 299.56L566.38 300.11L566.56 300.66L566.72 301.22L566.87 301.79L566.99 302.37L567.1 302.95L567.19 303.55L567.25 304.15L567.3 304.76L567.32 305.38L567.32 306.01L567.28 306.7L567.22 307.38L567.13 308.06L567.03 308.73L566.91 309.41L566.76 310.08L566.6 310.74L566.41 311.4L566.21 312.06L565.99 312.71L565.75 313.35L565.49 313.98L565.22 314.61L564.92 315.23L564.61 315.84L564.28 316.44L563.93 317.03L563.57 317.61L563.19 318.17L562.79 318.73L562.38 319.27L561.95 319.8L561.5 320.32L561.04 320.82L560.56 321.31L560.07 321.78L559.57 322.24L559.05 322.67L558.51 323.1L557.96 323.5L557.4 323.88L556.83 324.25L556.24 324.6L555.63 324.92L555.02 325.23L554.39 325.51L553.75 325.78L553.1 326.02L552.44 326.23L551.76 326.43L550.55 326.72L549.34 326.98L548.13 327.23L546.91 327.45L545.69 327.66L544.47 327.84L543.25 328.01L542.02 328.16L540.8 328.29L539.57 328.41L538.34 328.51L537.1 328.6L535.87 328.67L534.64 328.73L533.4 328.78L532.16 328.82L530.92 328.84L529.68 328.86L528.44 328.87L527.2 328.87L525.96 328.86L524.72 328.85L523.48 328.83L522.24 328.8L520.99 328.77L519.75 328.74L518.51 328.7L517.27 328.67L516.03 328.63L514.79 328.59L513.54 328.55L512.3 328.51L511.07 328.48L509.83 328.45L508.59 328.42L507.36 328.39L506.12 328.38L504.89 328.36L503.66 328.36L502.43 328.36L502.38 326.41L502.33 324.47L502.29 322.52L502.25 320.58L502.21 318.63L502.17 316.69L502.14 314.74L502.11 312.8L502.08 310.85L502.05 308.91L502.03 306.96L502.01 305.02L501.99 303.07L501.97 301.13L501.96 299.18L501.94 297.24L501.93 295.29L501.93 293.35L501.92 291.4L501.92 289.45L501.92 287.51L501.92 285.56L501.93 283.62L501.93 281.67L501.94 279.73L501.95 277.78L501.97 275.84L501.98 273.89L502 271.95L502.02 270L502.04 268.06L502.06 266.11L502.09 264.17L502.12 262.23L502.15 260.28L502.18 258.34L502.22 256.39L502.25 254.45L502.29 252.5L502.33 250.56L503.54 250.6L504.74 250.64ZM519.25 295.96L519.29 297.16L519.32 298.36L519.35 299.57L519.39 300.77L519.42 301.97L519.46 303.17L519.49 304.38L519.52 305.58L519.56 306.78L519.59 307.99L519.63 309.19L519.67 310.4L519.7 311.6L519.74 312.8L519.78 314.01L519.81 315.21L521.07 315.19L522.33 315.18L523.59 315.18L524.85 315.18L526.11 315.18L527.37 315.18L528.63 315.18L529.89 315.18L531.15 315.16L532.41 315.14L533.67 315.11L534.93 315.06L536.19 314.99L537.45 314.91L538.7 314.8L539.95 314.67L541.21 314.52L542.45 314.33L543.71 313.87L544.85 313.25L545.89 312.49L546.82 311.6L547.63 310.61L548.31 309.53L548.87 308.37L549.3 307.17L549.59 305.92L549.75 304.65L549.76 303.38L549.63 302.13L549.35 300.91L548.91 299.73L548.31 298.62L547.54 297.6L546.61 296.67L545.51 295.87L544.13 295.33L542.73 294.88L541.31 294.53L539.87 294.26L538.42 294.05L536.95 293.91L535.48 293.82L534 293.77L532.51 293.76L531.01 293.77L529.52 293.79L528.03 293.82L526.53 293.84L525.05 293.85L523.57 293.84L522.09 293.79L520.63 293.7L519.19 293.56L519.22 294.76L519.25 295.96ZM519.33 266.54L519.33 267.68L519.33 268.81L519.33 269.94L519.33 271.07L519.33 272.2L519.32 273.33L519.32 274.46L519.32 275.6L519.33 276.73L519.33 277.86L519.33 279L519.33 280.14L519.34 281.27L519.35 282.41L520.71 282.34L522.07 282.28L523.43 282.22L524.79 282.17L526.15 282.12L527.52 282.07L528.88 282.02L530.25 281.96L531.61 281.89L532.98 281.82L534.34 281.73L535.7 281.62L537.06 281.5L538.41 281.35L539.77 281.18L541.12 280.99L542.45 280.55L543.58 279.89L544.52 279.03L545.27 278.01L545.84 276.86L546.22 275.61L546.42 274.3L546.44 272.96L546.28 271.61L545.96 270.31L545.46 269.07L544.8 267.93L543.98 266.92L542.99 266.08L541.85 265.44L540.55 265.03L539.22 264.94L537.9 264.85L536.57 264.78L535.25 264.7L533.92 264.64L532.6 264.58L531.27 264.52L529.94 264.47L528.62 264.43L527.29 264.39L525.97 264.36L524.64 264.33L523.31 264.31L521.99 264.3L520.66 264.29L519.33 264.28L519.33 265.41L519.33 266.54Z" id="c15SdeOE4e"></path><path d="M632.15 250.4C632.31 253.95 632.63 261.04 632.79 264.59C619.56 264.67 606.33 264.55 593.11 264.96C593.03 270.44 593 275.97 593 281.49C604.73 281.87 616.48 282.09 628.23 282.51C628.23 284.01 628.23 295.99 628.23 297.49C616.52 297.88 604.8 298.11 593.11 298.51C593.07 303.51 593.07 308.53 593.11 313.57C607.64 313.96 622.2 314.01 636.76 314.05C636.61 317.61 636.31 324.71 636.15 328.25C616.32 328.79 596.49 328.69 576.68 328.67C576.72 302.57 576.39 276.48 576.96 250.4C595.35 249.87 613.75 249.85 632.15 250.4Z" id="d1De86iRvt"></path><path d="M683.16 250.61L683.66 250.64L684.17 250.67L684.69 250.69L685.2 250.73L685.71 250.76L686.23 250.79L686.74 250.83L687.26 250.87L687.78 250.92L688.29 250.97L688.81 251.02L689.32 251.08L689.84 251.15L690.35 251.22L690.86 251.29L691.37 251.38L691.88 251.47L692.39 251.57L692.89 251.67L693.39 251.79L693.89 251.91L694.38 252.04L694.87 252.18L695.36 252.34L695.84 252.5L696.32 252.67L696.8 252.85L697.27 253.05L697.73 253.26L698.19 253.48L698.65 253.71L699.1 253.96L699.54 254.22L699.98 254.49L700.41 254.78L700.83 255.08L701.24 255.4L701.65 255.73L702.37 256.29L703.06 256.88L703.73 257.49L704.36 258.13L704.96 258.79L705.53 259.47L706.08 260.17L706.59 260.89L707.08 261.64L707.53 262.39L707.96 263.17L708.36 263.96L708.73 264.76L709.07 265.58L709.38 266.41L709.66 267.25L709.92 268.1L710.14 268.97L710.34 269.84L710.51 270.71L710.65 271.59L710.77 272.48L710.85 273.37L710.91 274.27L710.94 275.16L710.94 276.06L710.91 276.96L710.85 277.85L710.77 278.75L710.66 279.64L710.52 280.52L710.35 281.4L710.16 282.28L709.94 283.14L709.69 284L709.42 284.85L709.11 285.68L708.78 286.51L708.42 287.32L708.04 288.12L707.82 288.54L707.59 288.94L707.34 289.34L707.09 289.73L706.83 290.11L706.56 290.49L706.28 290.85L705.99 291.21L705.7 291.57L705.4 291.91L705.09 292.25L704.77 292.58L704.44 292.91L704.11 293.23L703.78 293.54L703.44 293.85L703.09 294.16L702.73 294.45L702.38 294.75L702.01 295.04L701.65 295.32L701.28 295.6L700.9 295.88L700.53 296.15L700.15 296.42L699.77 296.69L699.38 296.95L698.99 297.21L698.61 297.47L698.22 297.73L697.83 297.98L697.44 298.23L697.04 298.48L696.65 298.73L696.26 298.98L695.87 299.23L695.48 299.48L695.09 299.72L694.71 299.97L694.32 300.21L694.78 300.92L695.25 301.63L695.73 302.34L696.21 303.04L696.69 303.74L697.17 304.44L697.66 305.13L698.15 305.83L698.65 306.52L699.14 307.21L699.64 307.9L700.14 308.59L700.64 309.27L701.14 309.96L701.65 310.64L702.15 311.33L702.65 312.02L703.16 312.7L703.66 313.39L704.16 314.07L704.66 314.76L705.16 315.45L705.66 316.13L706.16 316.82L706.65 317.52L707.15 318.21L707.63 318.9L708.12 319.6L708.6 320.3L709.08 321L709.55 321.71L710.02 322.41L710.49 323.12L710.95 323.84L711.4 324.55L711.85 325.28L712.3 326L712.73 326.73L713.16 327.46L713.59 328.2L713.1 328.21L712.61 328.22L712.11 328.23L711.62 328.25L711.14 328.26L710.65 328.27L710.16 328.28L709.67 328.29L709.18 328.31L708.69 328.32L708.2 328.33L707.71 328.34L707.22 328.36L706.74 328.37L706.25 328.38L705.76 328.4L705.27 328.41L704.79 328.43L704.3 328.44L703.81 328.45L703.32 328.47L702.84 328.48L702.35 328.5L701.86 328.51L701.37 328.52L700.89 328.54L700.4 328.55L699.91 328.57L699.42 328.58L698.94 328.6L698.45 328.61L697.96 328.63L697.47 328.64L696.98 328.66L696.5 328.67L696.01 328.69L695.52 328.7L695.03 328.72L694.05 328.75L693.65 328.18L693.24 327.62L692.83 327.05L692.43 326.48L692.03 325.91L691.62 325.35L691.22 324.78L690.82 324.21L690.42 323.63L690.02 323.06L689.63 322.49L689.23 321.92L688.83 321.35L688.43 320.78L688.03 320.21L687.63 319.63L687.24 319.06L686.84 318.49L686.44 317.92L686.04 317.35L685.64 316.78L685.23 316.21L684.83 315.65L684.43 315.08L684.02 314.51L683.62 313.95L683.21 313.38L682.8 312.82L682.39 312.26L681.97 311.7L681.56 311.14L681.14 310.58L680.72 310.03L680.3 309.47L679.88 308.92L679.45 308.37L679.02 307.82L678.59 307.27L678.16 306.73L677.72 306.19L677.57 305.85L677.41 305.53L677.24 305.23L677.06 304.94L676.87 304.66L676.67 304.41L676.45 304.16L676.23 303.93L676 303.71L675.76 303.5L675.51 303.31L675.26 303.12L674.99 302.95L674.72 302.79L674.45 302.63L674.17 302.49L673.88 302.35L673.59 302.22L673.29 302.1L672.99 301.98L672.68 301.87L672.37 301.77L672.06 301.67L671.75 301.58L671.43 301.49L671.12 301.4L670.8 301.31L670.48 301.23L670.16 301.15L669.84 301.07L669.52 301L669.2 300.92L668.89 300.84L668.57 300.76L668.26 300.68L667.95 300.59L667.64 300.51L667.34 300.42L667.04 300.32L666.75 300.23L666.71 300.92L666.67 301.62L666.64 302.32L666.61 303.01L666.57 303.71L666.54 304.41L666.51 305.1L666.48 305.8L666.45 306.5L666.42 307.2L666.4 307.89L666.37 308.59L666.34 309.29L666.31 309.99L666.29 310.68L666.26 311.38L666.24 312.08L666.21 312.78L666.19 313.48L666.16 314.18L666.14 314.88L666.09 316.27L666.06 316.97L666.04 317.67L666.01 318.37L665.98 319.07L665.96 319.77L665.93 320.46L665.91 321.16L665.88 321.86L665.85 322.56L665.83 323.26L665.8 323.96L665.77 324.66L665.74 325.35L665.71 326.05L665.68 326.75L665.65 327.45L665.61 328.15L665.19 328.16L664.76 328.17L664.34 328.19L663.91 328.2L663.49 328.22L663.07 328.23L662.64 328.25L662.22 328.26L661.79 328.28L661.37 328.29L660.95 328.31L660.52 328.32L660.1 328.34L659.68 328.35L659.25 328.37L658.83 328.38L658.41 328.4L657.98 328.41L657.56 328.43L657.14 328.44L656.71 328.46L656.29 328.47L655.87 328.49L655.45 328.51L655.02 328.52L654.6 328.54L654.18 328.55L653.75 328.57L653.33 328.58L652.91 328.6L652.49 328.62L652.06 328.63L651.64 328.65L651.22 328.66L650.79 328.68L650.37 328.7L649.95 328.71L649.53 328.73L648.68 328.76L648.68 326.82L648.68 324.89L648.67 322.95L648.67 321.01L648.67 319.08L648.67 317.14L648.67 315.2L648.67 313.26L648.66 311.33L648.66 309.39L648.66 307.45L648.66 305.52L648.66 303.58L648.66 301.64L648.66 299.71L648.66 297.77L648.66 295.83L648.66 293.9L648.66 291.96L648.66 290.02L648.66 288.08L648.66 286.15L648.66 284.21L648.66 282.27L648.66 280.34L648.66 278.4L648.66 276.47L648.66 274.53L648.66 272.59L648.67 270.66L648.67 268.72L648.67 266.78L648.67 264.85L648.67 262.91L648.68 260.97L648.68 259.04L648.68 257.1L648.69 255.17L648.69 253.23L648.69 251.29L649.53 251.26L650.37 251.23L651.2 251.2L652.04 251.17L652.87 251.14L653.71 251.11L654.55 251.08L655.38 251.05L656.22 251.03L657.05 251L657.89 250.98L658.73 250.95L659.56 250.93L660.4 250.91L661.23 250.89L662.07 250.87L662.91 250.85L663.74 250.83L664.58 250.81L665.42 250.79L666.25 250.77L667.09 250.76L667.92 250.74L668.76 250.73L669.6 250.71L670.43 250.7L671.27 250.69L672.11 250.67L672.94 250.66L673.78 250.65L674.62 250.64L675.45 250.63L676.29 250.62L677.13 250.61L677.96 250.6L678.8 250.59L679.64 250.58L680.47 250.57L681.31 250.57L682.15 250.56L682.65 250.59L683.16 250.61ZM665.96 266.81L665.98 268.08L666.01 269.36L666.04 270.64L666.07 271.92L666.1 273.19L666.13 274.47L666.16 275.75L666.19 277.03L666.22 278.31L666.26 279.59L666.29 280.87L666.33 282.15L666.36 283.43L666.4 284.72L666.44 286L666.48 287.28L667.58 287.26L668.67 287.24L669.77 287.22L670.87 287.21L671.97 287.19L673.07 287.17L674.17 287.15L675.27 287.12L676.37 287.09L677.47 287.04L678.56 286.99L679.66 286.92L680.76 286.84L681.85 286.75L682.94 286.64L684.04 286.51L685.13 286.37L686.21 286.2L687.72 285.81L689.06 285.18L690.25 284.34L691.29 283.32L692.15 282.14L692.86 280.84L693.4 279.44L693.77 277.97L693.98 276.45L694.01 274.93L693.87 273.41L693.55 271.94L693.05 270.54L692.38 269.24L691.52 268.07L690.48 267.05L689.25 266.21L687.84 265.59L686.64 265.35L685.44 265.15L684.23 264.99L683.01 264.86L681.8 264.75L680.58 264.68L679.35 264.62L678.13 264.57L676.9 264.55L675.68 264.53L674.45 264.51L673.22 264.5L672 264.48L670.77 264.46L669.55 264.43L668.33 264.39L667.12 264.33L665.91 264.25L665.93 265.53L665.96 266.81Z" id="c3ekCdWRLt"></path><path d="M744.6 251.04C744.68 276.77 744.89 302.49 744.36 328.23C738.8 328.25 733.28 328.31 727.76 328.33C727.05 302.57 727.32 276.8 727.37 251.03C733.11 250.77 738.87 250.56 744.6 251.04Z" id="cAcCLtSIC"></path><path d="M798.97 250.48L799.54 250.52L800.11 250.58L800.66 250.67L801.2 250.78L801.72 250.91L802.24 251.07L802.73 251.26L803.21 251.48L803.67 251.74L804.12 252.02L804.54 252.35L804.94 252.71L805.32 253.11L805.67 253.55L806 254.03L806.3 254.56L806.58 255.14L806.83 255.76L807.6 257.58L808.39 259.4L809.17 261.22L809.96 263.04L810.75 264.85L811.55 266.67L812.34 268.48L813.14 270.3L813.95 272.11L814.75 273.92L815.56 275.73L816.36 277.54L817.17 279.35L817.98 281.16L818.79 282.97L819.6 284.77L820.41 286.58L821.23 288.39L822.04 290.2L822.85 292.01L823.65 293.82L824.46 295.63L825.27 297.44L826.07 299.25L826.87 301.06L827.67 302.88L828.47 304.69L829.27 306.51L830.06 308.32L830.85 310.14L831.63 311.96L832.41 313.78L833.19 315.61L833.96 317.43L834.73 319.26L835.49 321.09L836.25 322.92L837.01 324.75L837.75 326.59L838.49 328.43L838.2 328.43L837.89 328.44L837.56 328.45L837.23 328.45L836.88 328.46L836.53 328.47L836.16 328.48L835.78 328.48L835.39 328.49L835 328.5L834.6 328.51L834.19 328.52L833.78 328.53L833.36 328.54L832.94 328.55L832.51 328.56L832.08 328.57L831.65 328.58L831.22 328.59L830.79 328.59L830.35 328.6L829.92 328.61L829.49 328.62L829.06 328.63L828.63 328.64L828.21 328.65L827.79 328.66L827.38 328.67L826.97 328.68L826.57 328.69L826.18 328.7L825.79 328.71L825.42 328.72L825.05 328.73L824.69 328.73L824.34 328.74L824.01 328.75L823.69 328.76L823.38 328.77L823.08 328.77L822.83 328.35L822.58 327.93L822.33 327.51L822.08 327.08L821.84 326.66L821.6 326.23L821.36 325.8L821.12 325.37L820.89 324.94L820.65 324.51L820.42 324.07L820.19 323.64L819.97 323.21L819.74 322.77L819.52 322.33L819.29 321.9L819.07 321.46L818.85 321.02L818.63 320.58L818.42 320.14L818.2 319.7L817.98 319.26L817.77 318.82L817.55 318.38L817.34 317.94L817.12 317.5L816.91 317.05L816.69 316.61L816.48 316.17L816.27 315.73L816.05 315.29L815.84 314.85L815.63 314.4L815.41 313.96L815.2 313.52L814.99 313.08L814.77 312.64L814.55 312.2L814.34 311.76L814.12 311.32L813.16 311.32L812.2 311.32L811.25 311.31L810.29 311.31L809.33 311.31L808.37 311.31L807.42 311.31L806.46 311.31L805.5 311.31L804.54 311.31L803.58 311.31L802.63 311.31L801.67 311.31L800.71 311.31L799.75 311.31L798.8 311.31L797.84 311.31L796.88 311.32L795.93 311.32L794.97 311.32L794.01 311.32L793.05 311.33L792.1 311.33L791.14 311.34L790.18 311.34L789.23 311.34L788.27 311.35L787.31 311.35L786.35 311.36L785.4 311.37L784.44 311.37L783.48 311.38L782.53 311.39L781.57 311.4L780.61 311.4L779.65 311.41L778.7 311.42L777.74 311.43L776.78 311.44L775.83 311.45L775.62 311.85L775.42 312.24L775.22 312.64L775.02 313.04L774.83 313.45L774.64 313.86L774.45 314.26L774.27 314.68L774.08 315.09L773.9 315.5L773.72 315.92L773.54 316.33L773.36 316.75L773.18 317.16L772.99 317.58L772.81 317.99L772.63 318.41L772.44 318.82L772.25 319.23L772.06 319.64L771.87 320.05L771.67 320.46L771.47 320.86L771.27 321.27L771.06 321.67L770.85 322.06L770.63 322.46L770.41 322.84L770.18 323.23L769.95 323.61L769.71 323.99L769.46 324.36L769.21 324.73L768.95 325.09L768.68 325.44L768.4 325.8L768.11 326.14L767.82 326.48L767.51 326.81L767.2 327.13L766.85 327.28L766.5 327.41L766.15 327.53L765.8 327.64L765.44 327.75L765.09 327.84L764.73 327.93L764.36 328L764 328.07L763.63 328.14L763.27 328.19L762.9 328.24L762.53 328.29L762.16 328.32L761.78 328.36L761.41 328.38L761.03 328.41L760.66 328.42L760.28 328.44L759.9 328.45L759.53 328.46L759.15 328.46L758.77 328.46L758.39 328.46L758.01 328.46L757.64 328.46L757.26 328.46L756.88 328.46L756.5 328.45L756.12 328.45L755.75 328.45L755.37 328.45L755 328.45L754.62 328.45L754.25 328.46L753.88 328.47L753.5 328.48L753.14 328.49L752.77 328.51L752.4 328.53L753.18 326.58L753.97 324.62L754.77 322.67L755.57 320.72L756.39 318.78L757.21 316.84L758.04 314.9L758.88 312.97L759.72 311.04L760.56 309.11L761.42 307.18L762.27 305.26L763.14 303.33L764 301.41L764.87 299.49L765.74 297.57L766.61 295.66L767.49 293.74L768.37 291.82L769.24 289.91L770.12 287.99L771 286.07L771.88 284.16L772.76 282.24L773.63 280.32L774.51 278.41L775.38 276.49L776.25 274.57L777.11 272.65L777.97 270.72L778.83 268.8L779.68 266.87L780.53 264.94L781.37 263.01L782.21 261.08L783.04 259.14L783.86 257.2L784.67 255.26L785.48 253.31L786.28 251.36L786.77 251.38L787.28 251.38L787.8 251.36L788.34 251.33L788.88 251.29L789.44 251.25L790.01 251.19L790.59 251.12L791.18 251.05L791.77 250.98L792.37 250.91L792.97 250.83L793.58 250.76L794.18 250.69L794.79 250.63L795.4 250.57L796.01 250.53L796.61 250.49L797.21 250.47L797.8 250.45L798.39 250.46L798.97 250.48ZM794.24 269.66L793.44 271.3L792.65 272.95L791.89 274.61L791.13 276.28L790.39 277.95L789.66 279.62L788.94 281.31L788.23 282.99L787.53 284.68L786.84 286.38L786.15 288.07L785.47 289.77L784.8 291.47L784.13 293.18L783.47 294.88L784.9 294.92L786.33 294.96L787.77 295L789.2 295.03L790.64 295.05L792.07 295.08L793.5 295.1L794.94 295.12L796.38 295.14L797.81 295.16L799.25 295.18L800.69 295.19L802.12 295.21L803.56 295.22L805 295.24L806.44 295.25L807.88 295.27L807.27 293.53L806.64 291.8L806 290.08L805.34 288.36L804.67 286.65L803.99 284.94L803.3 283.23L802.6 281.53L801.89 279.84L801.17 278.14L800.44 276.45L799.7 274.77L798.95 273.09L798.2 271.41L797.44 269.74L796.67 268.07L795.89 266.4L795.06 268.03L794.24 269.66Z" id="a4jSOSQAjU"></path></defs><g><g><g><use xlink:href="#d137mul7VW" opacity="1" fill="#2b5973" fill-opacity="1"></use><g><use xlink:href="#d137mul7VW" opacity="1" fill-opacity="0" stroke="#000000" stroke-width="1" stroke-opacity="0"></use></g></g><g><use xlink:href="#ezmic0eh5" opacity="1" fill="#2b5973" fill-opacity="1"></use><g><use xlink:href="#ezmic0eh5" opacity="1" fill-opacity="0" stroke="#000000" stroke-width="1" stroke-opacity="0"></use></g></g><g><use xlink:href="#bBEuI43z" opacity="1" fill="#2b5973" fill-opacity="1"></use><g><use xlink:href="#bBEuI43z" opacity="1" fill-opacity="0" stroke="#000000" stroke-width="1" stroke-opacity="0"></use></g></g><g><use xlink:href="#a1potJG3KO" opacity="1" fill="#2b5973" fill-opacity="1"></use><g><use xlink:href="#a1potJG3KO" opacity="1" fill-opacity="0" stroke="#000000" stroke-width="1" stroke-opacity="0"></use></g></g><g><use xlink:href="#bd25xar3Q" opacity="1" fill="#2b5973" fill-opacity="1"></use><g><use xlink:href="#bd25xar3Q" opacity="1" fill-opacity="0" stroke="#000000" stroke-width="1" stroke-opacity="0"></use></g></g><g><use xlink:href="#b30roOoKrY" opacity="1" fill="#2b5973" fill-opacity="1"></use><g><use xlink:href="#b30roOoKrY" opacity="1" fill-opacity="0" stroke="#000000" stroke-width="1" stroke-opacity="0"></use></g></g><g><use xlink:href="#f2yv1hmfAg" opacity="1" fill="#2b5973" fill-opacity="1"></use><g><use xlink:href="#f2yv1hmfAg" opacity="1" fill-opacity="0" stroke="#000000" stroke-width="1" stroke-opacity="0"></use></g></g><g><use xlink:href="#arvl1hXCh" opacity="1" fill="#2b5973" fill-opacity="1"></use><g><use xlink:href="#arvl1hXCh" opacity="1" fill-opacity="0" stroke="#000000" stroke-width="1" stroke-opacity="0"></use></g></g><g><use xlink:href="#a9VbtjSipm" opacity="1" fill="#2b5973" fill-opacity="1"></use><g><use xlink:href="#a9VbtjSipm" opacity="1" fill-opacity="0" stroke="#000000" stroke-width="1" stroke-opacity="0"></use></g></g><g><use xlink:href="#apBZ7dkud" opacity="1" fill="#e01f2f" fill-opacity="1"></use><g><use xlink:href="#apBZ7dkud" opacity="1" fill-opacity="0" stroke="#000000" stroke-width="1" stroke-opacity="0"></use></g></g><g><use xlink:href="#ajG1hWwoo" opacity="1" fill="#e01f2f" fill-opacity="1"></use><g><use xlink:href="#ajG1hWwoo" opacity="1" fill-opacity="0" stroke="#000000" stroke-width="1" stroke-opacity="0"></use></g></g><g><use xlink:href="#c6jI0Dqat" opacity="1" fill="#e01f2f" fill-opacity="1"></use><g><use xlink:href="#c6jI0Dqat" opacity="1" fill-opacity="0" stroke="#000000" stroke-width="1" stroke-opacity="0"></use></g></g><g><use xlink:href="#c15SdeOE4e" opacity="1" fill="#e01f2f" fill-opacity="1"></use><g><use xlink:href="#c15SdeOE4e" opacity="1" fill-opacity="0" stroke="#000000" stroke-width="1" stroke-opacity="0"></use></g></g><g><use xlink:href="#d1De86iRvt" opacity="1" fill="#e01f2f" fill-opacity="1"></use><g><use xlink:href="#d1De86iRvt" opacity="1" fill-opacity="0" stroke="#000000" stroke-width="1" stroke-opacity="0"></use></g></g><g><use xlink:href="#c3ekCdWRLt" opacity="1" fill="#e01f2f" fill-opacity="1"></use><g><use xlink:href="#c3ekCdWRLt" opacity="1" fill-opacity="0" stroke="#000000" stroke-width="1" stroke-opacity="0"></use></g></g><g><use xlink:href="#cAcCLtSIC" opacity="1" fill="#e01f2f" fill-opacity="1"></use><g><use xlink:href="#cAcCLtSIC" opacity="1" fill-opacity="0" stroke="#000000" stroke-width="1" stroke-opacity="0"></use></g></g><g><use xlink:href="#a4jSOSQAjU" opacity="1" fill="#e01f2f" fill-opacity="1"></use><g><use xlink:href="#a4jSOSQAjU" opacity="1" fill-opacity="0" stroke="#000000" stroke-width="1" stroke-opacity="0"></use></g></g></g></g></svg>